<mxfile host="65bd71144e">
    <diagram id="nZN2Drb8L5keki9BKoeM" name="Page-1">
        <mxGraphModel dx="2000" dy="431" grid="1" gridSize="10" guides="1" tooltips="1" connect="1" arrows="1" fold="1" page="1" pageScale="1" pageWidth="850" pageHeight="1100" math="0" shadow="0">
            <root>
                <mxCell id="0"/>
                <mxCell id="1" parent="0"/>
                <mxCell id="2" value="&lt;font color=&quot;#000000&quot;&gt;App&lt;/font&gt;" style="whiteSpace=wrap;html=1;fillColor=#66B2FF;" vertex="1" parent="1">
                    <mxGeometry x="330" y="30" width="120" height="60" as="geometry"/>
                </mxCell>
                <mxCell id="3" value="&lt;font color=&quot;#000000&quot;&gt;PlantContainer&lt;br&gt;&lt;br&gt;&lt;/font&gt;" style="whiteSpace=wrap;html=1;fillColor=#66B2FF;" vertex="1" parent="1">
                    <mxGeometry x="317" y="140" width="120" height="60" as="geometry"/>
                </mxCell>
                <mxCell id="4" value="&lt;font color=&quot;#000000&quot;&gt;ListingForm&lt;/font&gt;" style="whiteSpace=wrap;html=1;fillColor=#66B2FF;" vertex="1" parent="1">
                    <mxGeometry x="610" y="140" width="120" height="60" as="geometry"/>
                </mxCell>
                <mxCell id="5" value="&lt;font color=&quot;#000000&quot;&gt;ListingContainer&lt;/font&gt;" style="whiteSpace=wrap;html=1;fillColor=#66B2FF;" vertex="1" parent="1">
                    <mxGeometry x="470" y="140" width="120" height="60" as="geometry"/>
                </mxCell>
                <mxCell id="6" value="&lt;font color=&quot;#000000&quot;&gt;ListingCard&lt;/font&gt;" style="whiteSpace=wrap;html=1;fillColor=#66B2FF;" vertex="1" parent="1">
                    <mxGeometry x="470" y="240" width="120" height="60" as="geometry"/>
                </mxCell>
                <mxCell id="7" value="&lt;font color=&quot;#000000&quot;&gt;ListingEditForm&lt;/font&gt;" style="whiteSpace=wrap;html=1;fillColor=#66B2FF;" vertex="1" parent="1">
                    <mxGeometry x="470" y="330" width="120" height="60" as="geometry"/>
                </mxCell>
                <mxCell id="8" value="&lt;font color=&quot;#000000&quot;&gt;PlantCard&lt;br&gt;&lt;br&gt;&lt;/font&gt;" style="whiteSpace=wrap;html=1;fillColor=#66B2FF;" vertex="1" parent="1">
                    <mxGeometry x="310" y="240" width="120" height="60" as="geometry"/>
                </mxCell>
                <mxCell id="9" value="&lt;font color=&quot;#000000&quot;&gt;EmailForm&lt;br&gt;&lt;br&gt;&lt;/font&gt;" style="whiteSpace=wrap;html=1;fillColor=#66B2FF;" vertex="1" parent="1">
                    <mxGeometry x="180" y="140" width="120" height="60" as="geometry"/>
                </mxCell>
                <mxCell id="10" value="" style="edgeStyle=none;orthogonalLoop=1;jettySize=auto;html=1;fontColor=#000000;exitX=0;exitY=0.75;exitDx=0;exitDy=0;" edge="1" parent="1" source="2">
                    <mxGeometry width="80" relative="1" as="geometry">
                        <mxPoint x="310" y="60" as="sourcePoint"/>
                        <mxPoint x="240" y="120" as="targetPoint"/>
                        <Array as="points"/>
                    </mxGeometry>
                </mxCell>
                <mxCell id="12" value="" style="edgeStyle=none;orthogonalLoop=1;jettySize=auto;html=1;fontColor=#000000;" edge="1" parent="1">
                    <mxGeometry width="80" relative="1" as="geometry">
                        <mxPoint x="470" y="70" as="sourcePoint"/>
                        <mxPoint x="590" y="130" as="targetPoint"/>
                        <Array as="points"/>
                    </mxGeometry>
                </mxCell>
                <mxCell id="13" value="" style="edgeStyle=none;orthogonalLoop=1;jettySize=auto;html=1;fontColor=#000000;" edge="1" parent="1">
                    <mxGeometry width="80" relative="1" as="geometry">
                        <mxPoint x="369.5" y="200" as="sourcePoint"/>
                        <mxPoint x="369.5" y="250" as="targetPoint"/>
                        <Array as="points"/>
                    </mxGeometry>
                </mxCell>
                <mxCell id="14" value="" style="edgeStyle=none;orthogonalLoop=1;jettySize=auto;html=1;fontColor=#000000;" edge="1" parent="1">
                    <mxGeometry width="80" relative="1" as="geometry">
                        <mxPoint x="360" y="90" as="sourcePoint"/>
                        <mxPoint x="360" y="140" as="targetPoint"/>
                        <Array as="points"/>
                    </mxGeometry>
                </mxCell>
                <mxCell id="15" value="" style="edgeStyle=none;orthogonalLoop=1;jettySize=auto;html=1;fontColor=#000000;entryX=0.167;entryY=-0.017;entryDx=0;entryDy=0;entryPerimeter=0;" edge="1" parent="1" target="5">
                    <mxGeometry width="80" relative="1" as="geometry">
                        <mxPoint x="440" y="90" as="sourcePoint"/>
                        <mxPoint x="440" y="140" as="targetPoint"/>
                        <Array as="points"/>
                    </mxGeometry>
                </mxCell>
                <mxCell id="17" value="" style="edgeStyle=none;orthogonalLoop=1;jettySize=auto;html=1;fontColor=#000000;" edge="1" parent="1">
                    <mxGeometry width="80" relative="1" as="geometry">
                        <mxPoint x="520" y="200" as="sourcePoint"/>
                        <mxPoint x="520" y="250" as="targetPoint"/>
                        <Array as="points"/>
                    </mxGeometry>
                </mxCell>
                <mxCell id="18" value="" style="edgeStyle=none;orthogonalLoop=1;jettySize=auto;html=1;fontColor=#000000;" edge="1" parent="1">
                    <mxGeometry width="80" relative="1" as="geometry">
                        <mxPoint x="520" y="280" as="sourcePoint"/>
                        <mxPoint x="520" y="330" as="targetPoint"/>
                        <Array as="points"/>
                    </mxGeometry>
                </mxCell>
                <mxCell id="19" value="&lt;font color=&quot;#000000&quot;&gt;Login&lt;br&gt;&lt;br&gt;&lt;/font&gt;" style="whiteSpace=wrap;html=1;fillColor=#66B2FF;" vertex="1" parent="1">
                    <mxGeometry x="3" y="140" width="80" height="60" as="geometry"/>
                </mxCell>
                <mxCell id="20" value="&lt;font color=&quot;#000000&quot;&gt;Signup&lt;br&gt;&lt;br&gt;&lt;/font&gt;" style="whiteSpace=wrap;html=1;fillColor=#66B2FF;" vertex="1" parent="1">
                    <mxGeometry x="90" y="140" width="80" height="60" as="geometry"/>
                </mxCell>
                <mxCell id="21" value="" style="edgeStyle=none;orthogonalLoop=1;jettySize=auto;html=1;fontColor=#000000;exitX=0;exitY=0.25;exitDx=0;exitDy=0;" edge="1" parent="1" source="2">
                    <mxGeometry width="80" relative="1" as="geometry">
                        <mxPoint x="310" y="40" as="sourcePoint"/>
                        <mxPoint x="130" y="130" as="targetPoint"/>
                        <Array as="points"/>
                    </mxGeometry>
                </mxCell>
                <mxCell id="22" value="" style="edgeStyle=none;orthogonalLoop=1;jettySize=auto;html=1;fontColor=#000000;exitX=-0.033;exitY=0.117;exitDx=0;exitDy=0;exitPerimeter=0;" edge="1" parent="1" source="2">
                    <mxGeometry width="80" relative="1" as="geometry">
                        <mxPoint x="220" y="50" as="sourcePoint"/>
                        <mxPoint x="40" y="140" as="targetPoint"/>
                        <Array as="points"/>
                    </mxGeometry>
                </mxCell>
                <mxCell id="23" value="&lt;font color=&quot;#000000&quot;&gt;LoginEditForm&lt;br&gt;&lt;br&gt;&lt;/font&gt;" style="whiteSpace=wrap;html=1;fillColor=#66B2FF;" vertex="1" parent="1">
                    <mxGeometry x="-7" y="230" width="97" height="50" as="geometry"/>
                </mxCell>
                <mxCell id="24" value="" style="edgeStyle=none;orthogonalLoop=1;jettySize=auto;html=1;fontColor=#000000;" edge="1" parent="1">
                    <mxGeometry width="80" relative="1" as="geometry">
                        <mxPoint x="37.5" y="180" as="sourcePoint"/>
                        <mxPoint x="37.5" y="230" as="targetPoint"/>
                        <Array as="points"/>
                    </mxGeometry>
                </mxCell>
            </root>
        </mxGraphModel>
    </diagram>
</mxfile>